<svg width="158" height="38" viewBox="0 0 158 38" fill="none" xmlns="http://www.w3.org/2000/svg">
<path d="M150.147 10.2407C147.754 7.85185 145.478 5.5679 144.799 3C144.133 5.5679 141.838 7.85185 139.445 10.2407C135.861 13.8272 131.796 17.8889 131.796 23.9877C131.758 25.7199 132.067 27.4422 132.703 29.0536C133.339 30.665 134.291 32.133 135.502 33.3714C136.713 34.6099 138.159 35.5938 139.755 36.2656C141.351 36.9374 143.269 37.5 145 37.5C146.731 37.5 148.241 36.9374 149.837 36.2656C151.433 35.5938 152.879 34.6099 154.09 33.3714C155.301 32.133 156.253 30.665 156.889 29.0536C157.525 27.4422 157.834 25.7199 157.796 23.9877C157.796 17.8889 153.731 13.8272 150.147 10.2407ZM138.483 25.1728C138.085 25.673 137.744 26.2153 137.465 26.7901C137.444 26.8357 137.413 26.876 137.375 26.9081C137.336 26.9401 137.291 26.9631 137.243 26.9753H137.132C136.842 26.9753 136.515 26.4074 136.515 26.4074C136.429 26.2716 136.348 26.1296 136.268 25.9815L136.213 25.8642C135.46 24.142 136.114 21.6914 136.114 21.6914C136.436 20.497 136.962 19.3672 137.668 18.3519C138.1 17.7071 138.57 17.0887 139.075 16.5L139.692 17.1173L142.603 20.0926C142.658 20.1537 142.688 20.2328 142.688 20.3148C142.688 20.3968 142.658 20.4759 142.603 20.537L139.562 23.9136L138.483 25.1728ZM144.947 33.6975C144.082 33.6925 143.237 33.4378 142.513 32.964C141.788 32.4903 141.216 31.8175 140.865 31.0265C140.513 30.2354 140.397 29.3597 140.53 28.5043C140.664 27.6488 141.041 26.8501 141.616 26.2037C142.566 25.0741 143.726 23.963 144.984 22.5C146.477 24.0926 147.452 25.1852 148.408 26.3827C148.483 26.4751 148.549 26.5743 148.605 26.679C149.128 27.4237 149.408 28.312 149.407 29.2222C149.409 29.8093 149.294 30.391 149.071 30.9339C148.848 31.4768 148.519 31.9703 148.105 32.386C147.691 32.8017 147.199 33.1316 146.657 33.3566C146.115 33.5817 145.534 33.6975 144.947 33.6975ZM153.386 26.5432C153.357 26.6355 153.303 26.7179 153.23 26.7812C153.157 26.8445 153.068 26.886 152.972 26.9012H152.886C152.709 26.8438 152.56 26.7229 152.467 26.5617C151.687 25.3917 150.803 24.2946 149.826 23.284L144.682 17.9444C143.852 17.1745 143.061 16.3628 142.313 15.5123C142.295 15.4801 142.274 15.4492 142.252 15.4198C142.117 15.2305 142.011 15.0225 141.937 14.8025C141.937 14.7654 141.937 14.7222 141.937 14.6852C141.882 14.3496 141.91 14.0057 142.017 13.6831C142.125 13.3605 142.309 13.0689 142.554 12.8333C143.319 12.0679 144.09 11.2963 144.818 10.4938C145.62 11.3827 146.477 12.2346 147.322 13.0802C149.046 14.6868 150.606 16.461 151.979 18.3765C153.138 20.0192 153.769 21.9768 153.787 23.9877C153.777 24.8544 153.642 25.7152 153.386 26.5432Z" fill="#003CC5"/>
<path d="M27.8438 31.6875C26.5781 33.2031 24.7891 34.3828 22.4766 35.2266C20.1641 36.0547 17.6016 36.4688 14.7891 36.4688C11.8359 36.4688 9.24219 35.8281 7.00781 34.5469C4.78906 33.25 3.07031 31.375 1.85156 28.9219C0.648438 26.4688 0.03125 23.5859 0 20.2734V17.9531C0 14.5469 0.570312 11.6016 1.71094 9.11719C2.86719 6.61719 4.52344 4.71094 6.67969 3.39844C8.85156 2.07031 11.3906 1.40625 14.2969 1.40625C18.3438 1.40625 21.5078 2.375 23.7891 4.3125C26.0703 6.23438 27.4219 9.03906 27.8438 12.7266H21C20.6875 10.7734 19.9922 9.34375 18.9141 8.4375C17.8516 7.53125 16.3828 7.07812 14.5078 7.07812C12.1172 7.07812 10.2969 7.97656 9.04688 9.77344C7.79688 11.5703 7.16406 14.2422 7.14844 17.7891V19.9688C7.14844 23.5469 7.82812 26.25 9.1875 28.0781C10.5469 29.9062 12.5391 30.8203 15.1641 30.8203C17.8047 30.8203 19.6875 30.2578 20.8125 29.1328V23.25H14.4141V18.0703H27.8438V31.6875Z" fill="#003CC5"/>
<path d="M40.2656 36H33.4688V0H40.2656V36Z" fill="#003CC5"/>
<path d="M53.0156 36H46.2188V10.6406H53.0156V36ZM45.8203 4.07812C45.8203 3.0625 46.1562 2.22656 46.8281 1.57031C47.5156 0.914062 48.4453 0.585938 49.6172 0.585938C50.7734 0.585938 51.6953 0.914062 52.3828 1.57031C53.0703 2.22656 53.4141 3.0625 53.4141 4.07812C53.4141 5.10938 53.0625 5.95312 52.3594 6.60938C51.6719 7.26562 50.7578 7.59375 49.6172 7.59375C48.4766 7.59375 47.5547 7.26562 46.8516 6.60938C46.1641 5.95312 45.8203 5.10938 45.8203 4.07812Z" fill="#003CC5"/>
<path d="M72.3516 28.9922C72.3516 28.1641 71.9375 27.5156 71.1094 27.0469C70.2969 26.5625 68.9844 26.1328 67.1719 25.7578C61.1406 24.4922 58.125 21.9297 58.125 18.0703C58.125 15.8203 59.0547 13.9453 60.9141 12.4453C62.7891 10.9297 65.2344 10.1719 68.25 10.1719C71.4688 10.1719 74.0391 10.9297 75.9609 12.4453C77.8984 13.9609 78.8672 15.9297 78.8672 18.3516H72.0938C72.0938 17.3828 71.7812 16.5859 71.1562 15.9609C70.5312 15.3203 69.5547 15 68.2266 15C67.0859 15 66.2031 15.2578 65.5781 15.7734C64.9531 16.2891 64.6406 16.9453 64.6406 17.7422C64.6406 18.4922 64.9922 19.1016 65.6953 19.5703C66.4141 20.0234 67.6172 20.4219 69.3047 20.7656C70.9922 21.0938 72.4141 21.4688 73.5703 21.8906C77.1484 23.2031 78.9375 25.4766 78.9375 28.7109C78.9375 31.0234 77.9453 32.8984 75.9609 34.3359C73.9766 35.7578 71.4141 36.4688 68.2734 36.4688C66.1484 36.4688 64.2578 36.0938 62.6016 35.3438C60.9609 34.5781 59.6719 33.5391 58.7344 32.2266C57.7969 30.8984 57.3281 29.4688 57.3281 27.9375H63.75C63.8125 29.1406 64.2578 30.0625 65.0859 30.7031C65.9141 31.3438 67.0234 31.6641 68.4141 31.6641C69.7109 31.6641 70.6875 31.4219 71.3438 30.9375C72.0156 30.4375 72.3516 29.7891 72.3516 28.9922Z" fill="#003CC5"/>
<path d="M97.0547 28.9922C97.0547 28.1641 96.6406 27.5156 95.8125 27.0469C95 26.5625 93.6875 26.1328 91.875 25.7578C85.8438 24.4922 82.8281 21.9297 82.8281 18.0703C82.8281 15.8203 83.7578 13.9453 85.6172 12.4453C87.4922 10.9297 89.9375 10.1719 92.9531 10.1719C96.1719 10.1719 98.7422 10.9297 100.664 12.4453C102.602 13.9609 103.57 15.9297 103.57 18.3516H96.7969C96.7969 17.3828 96.4844 16.5859 95.8594 15.9609C95.2344 15.3203 94.2578 15 92.9297 15C91.7891 15 90.9062 15.2578 90.2812 15.7734C89.6562 16.2891 89.3438 16.9453 89.3438 17.7422C89.3438 18.4922 89.6953 19.1016 90.3984 19.5703C91.1172 20.0234 92.3203 20.4219 94.0078 20.7656C95.6953 21.0938 97.1172 21.4688 98.2734 21.8906C101.852 23.2031 103.641 25.4766 103.641 28.7109C103.641 31.0234 102.648 32.8984 100.664 34.3359C98.6797 35.7578 96.1172 36.4688 92.9766 36.4688C90.8516 36.4688 88.9609 36.0938 87.3047 35.3438C85.6641 34.5781 84.375 33.5391 83.4375 32.2266C82.5 30.8984 82.0312 29.4688 82.0312 27.9375H88.4531C88.5156 29.1406 88.9609 30.0625 89.7891 30.7031C90.6172 31.3438 91.7266 31.6641 93.1172 31.6641C94.4141 31.6641 95.3906 31.4219 96.0469 30.9375C96.7188 30.4375 97.0547 29.7891 97.0547 28.9922Z" fill="#003CC5"/>
<path d="M119.695 36.4688C115.977 36.4688 112.945 35.3281 110.602 33.0469C108.273 30.7656 107.109 27.7266 107.109 23.9297V23.2734C107.109 20.7266 107.602 18.4531 108.586 16.4531C109.57 14.4375 110.961 12.8906 112.758 11.8125C114.57 10.7188 116.633 10.1719 118.945 10.1719C122.414 10.1719 125.141 11.2656 127.125 13.4531C129.125 15.6406 130.125 18.7422 130.125 22.7578V25.5234H113.977C114.195 27.1797 114.852 28.5078 115.945 29.5078C117.055 30.5078 118.453 31.0078 120.141 31.0078C122.75 31.0078 124.789 30.0625 126.258 28.1719L129.586 31.8984C128.57 33.3359 127.195 34.4609 125.461 35.2734C123.727 36.0703 121.805 36.4688 119.695 36.4688ZM118.922 15.6562C117.578 15.6562 116.484 16.1094 115.641 17.0156C114.812 17.9219 114.281 19.2188 114.047 20.9062H123.469V20.3672C123.438 18.8672 123.031 17.7109 122.25 16.8984C121.469 16.0703 120.359 15.6562 118.922 15.6562Z" fill="#003CC5"/>
</svg>
