<?xml version="1.0" encoding="UTF-8" standalone="no"?>
<!-- Created with Inkscape (http://www.inkscape.org/) -->

<svg
   xmlns:dc="http://purl.org/dc/elements/1.1/"
   xmlns:cc="http://creativecommons.org/ns#"
   xmlns:rdf="http://www.w3.org/1999/02/22-rdf-syntax-ns#"
   xmlns:svg="http://www.w3.org/2000/svg"
   xmlns="http://www.w3.org/2000/svg"
   xmlns:xlink="http://www.w3.org/1999/xlink"
   xmlns:sodipodi="http://sodipodi.sourceforge.net/DTD/sodipodi-0.dtd"
   xmlns:inkscape="http://www.inkscape.org/namespaces/inkscape"
   width="50.300598mm"
   height="12.162014mm"
   viewBox="0 0 178.23047 43.09375"
   id="svg2"
   version="1.1"
   inkscape:version="0.92.2 (unknown)"
   inkscape:export-filename="/home/nikita/favicon.png"
   inkscape:export-xdpi="180"
   inkscape:export-ydpi="180"
   sodipodi:docname="logo.svg">
  <defs
     id="defs4">
    <linearGradient
       id="linearGradient4605"
       inkscape:collect="always">
      <stop
         id="stop4609"
         offset="0"
         style="stop-color:#006bc7;stop-opacity:1" />
      <stop
         id="stop827"
         offset="0.53783298"
         style="stop-color:#308ee3;stop-opacity:1" />
      <stop
         id="stop4611"
         offset="1"
         style="stop-color:#66b3fc;stop-opacity:1" />
    </linearGradient>
    <linearGradient
       inkscape:collect="always"
       xlink:href="#linearGradient4605"
       id="linearGradient4149"
       x1="54.707687"
       y1="482.68982"
       x2="54.707687"
       y2="526.22742"
       gradientUnits="userSpaceOnUse" />
  </defs>
  <sodipodi:namedview
     id="base"
     pagecolor="#ffffff"
     bordercolor="#666666"
     borderopacity="1.0"
     inkscape:pageopacity="0.0"
     inkscape:pageshadow="2"
     inkscape:zoom="2.8"
     inkscape:cx="111.56981"
     inkscape:cy="22.294351"
     inkscape:document-units="px"
     inkscape:current-layer="text2985"
     showgrid="false"
     fit-margin-top="0"
     fit-margin-left="0"
     fit-margin-right="0"
     fit-margin-bottom="0"
     inkscape:window-width="1920"
     inkscape:window-height="1017"
     inkscape:window-x="1920"
     inkscape:window-y="0"
     inkscape:window-maximized="1" />
  <metadata
     id="metadata7">
    <rdf:RDF>
      <cc:Work
         rdf:about="">
        <dc:format>image/svg+xml</dc:format>
        <dc:type
           rdf:resource="http://purl.org/dc/dcmitype/StillImage" />
        <dc:title></dc:title>
      </cc:Work>
    </rdf:RDF>
  </metadata>
  <g
     inkscape:label="Layer 1"
     inkscape:groupmode="layer"
     id="layer1"
     transform="translate(35.347866,-482.4256)">
    <g
       aria-label="Glisseo"
       style="font-style:normal;font-weight:normal;line-height:0%;font-family:sans-serif;letter-spacing:0px;word-spacing:0px;fill:url(#linearGradient4149);fill-opacity:1;stroke:none"
       id="text2985">
      <path
         d="m -18.394741,502.52325 h 15.8593749 v 20.72657 q -3.8554687,1.25781 -7.2734375,1.75 -3.3906254,0.51953 -6.9453124,0.51953 -9.050781,0 -13.835938,-5.30469 -4.757812,-5.33203 -4.757812,-15.28516 0,-9.67968 5.523437,-15.09375 5.550782,-5.41406 15.367188,-5.41406 6.1523437,0 11.8671874,2.46094 l -2.8164062,6.78125 q -4.375,-2.1875 -9.1054692,-2.1875 -5.496093,0 -8.804687,3.69141 -3.308594,3.6914 -3.308594,9.92578 0,6.50781 2.652344,9.95312 2.679687,3.41797 7.765625,3.41797 2.652344,0 5.386719,-0.54687 v -8.33985 h -7.574219 z"
         style="font-weight:bold;font-size:56px;line-height:1.25;font-family:sans-serif;-inkscape-font-specification:'Sans Bold';fill:url(#linearGradient4149);fill-opacity:1"
         id="path831" />
      <path
         d="M 14.691196,524.97247 H 6.3513527 V 482.4256 h 8.3398433 z"
         style="font-weight:bold;font-size:56px;line-height:1.25;font-family:sans-serif;-inkscape-font-specification:'Sans Bold';fill:url(#linearGradient4149);fill-opacity:1"
         id="path833" />
      <path
         d="m 23.058384,486.49982 q 0,-4.07422 4.539062,-4.07422 4.539063,0 4.539063,4.07422 0,1.9414 -1.148438,3.03515 -1.121093,1.06641 -3.390625,1.06641 -4.539062,0 -4.539062,-4.10156 z m 8.695312,38.47265 h -8.339843 v -30.57031 h 8.339843 z"
         style="font-weight:bold;font-size:56px;line-height:1.25;font-family:sans-serif;-inkscape-font-specification:'Sans Bold';fill:url(#linearGradient4149);fill-opacity:1"
         id="path835" />
      <path
         d="m 58.132603,517.19122 q 0,4.03125 -2.8125,6.14063 -2.789063,2.10937 -8.367188,2.10937 -2.859375,0 -4.875,-0.39843 -2.015625,-0.375 -3.773437,-1.125 v -5.90625 q 1.992187,0.9375 4.476562,1.57031 2.507813,0.63281 4.40625,0.63281 3.890625,0 3.890625,-2.25 0,-0.84375 -0.515625,-1.35937 -0.515625,-0.53907 -1.78125,-1.19532 -1.265625,-0.67968 -3.375,-1.57031 -3.023437,-1.26562 -4.453125,-2.34375 -1.40625,-1.07812 -2.0625,-2.46094 -0.632812,-1.40625 -0.632812,-3.44531 0,-3.49219 2.695312,-5.39062 2.71875,-1.92188 7.6875,-1.92188 4.734375,0 9.210938,2.0625 l -2.15625,5.15625 q -1.96875,-0.84375 -3.679688,-1.38281 -1.710937,-0.53906 -3.492187,-0.53906 -3.164063,0 -3.164063,1.71093 0,0.96094 1.007813,1.66407 1.03125,0.70312 4.476562,2.08593 3.070313,1.24219 4.5,2.32032 1.429688,1.07812 2.109375,2.48437 0.679688,1.40625 0.679688,3.35156 z"
         style="font-size:48px;font-family:sans-serif;letter-spacing:1px;fill:url(#linearGradient4149);fill-opacity:1"
         id="path837" />
      <path
         d="m 83.038853,517.19122 q 0,4.03125 -2.8125,6.14063 -2.789063,2.10937 -8.367188,2.10937 -2.859375,0 -4.875,-0.39843 -2.015625,-0.375 -3.773437,-1.125 v -5.90625 q 1.992187,0.9375 4.476562,1.57031 2.507813,0.63281 4.40625,0.63281 3.890625,0 3.890625,-2.25 0,-0.84375 -0.515625,-1.35937 -0.515625,-0.53907 -1.78125,-1.19532 -1.265625,-0.67968 -3.375,-1.57031 -3.023437,-1.26562 -4.453125,-2.34375 -1.40625,-1.07812 -2.0625,-2.46094 -0.632812,-1.40625 -0.632812,-3.44531 0,-3.49219 2.695312,-5.39062 2.71875,-1.92188 7.6875,-1.92188 4.734375,0 9.210938,2.0625 l -2.15625,5.15625 q -1.96875,-0.84375 -3.679688,-1.38281 -1.710937,-0.53906 -3.492187,-0.53906 -3.164063,0 -3.164063,1.71093 0,0.96094 1.007813,1.66407 1.03125,0.70312 4.476562,2.08593 3.070313,1.24219 4.5,2.32032 1.429688,1.07812 2.109375,2.48437 0.679688,1.40625 0.679688,3.35156 z"
         style="font-size:48px;font-family:sans-serif;letter-spacing:1px;fill:url(#linearGradient4149);fill-opacity:1"
         id="path839" />
      <path
         d="m 100.51542,503.3631 q -2.273442,0 -3.562505,1.45312 -1.289062,1.42969 -1.476562,4.07813 H 105.5076 q -0.0469,-2.64844 -1.38281,-4.07813 -1.33594,-1.45312 -3.60937,-1.45312 z m 1.00781,22.07812 q -6.328127,0 -9.890627,-3.49218 -3.5625,-3.49219 -3.5625,-9.89063 0,-6.58594 3.28125,-10.17187 3.304687,-3.60938 9.117187,-3.60938 5.55469,0 8.64844,3.16406 3.09375,3.16407 3.09375,8.74219 v 3.46875 H 95.31229 q 0.117188,3.04688 1.804688,4.75781 1.6875,1.71094 4.734372,1.71094 2.36719,0 4.47657,-0.49219 2.10937,-0.49218 4.40625,-1.57031 v 5.53125 q -1.875,0.9375 -4.00782,1.38281 -2.13281,0.46875 -5.20312,0.46875 z"
         style="font-size:48px;font-family:sans-serif;letter-spacing:1px;fill:url(#linearGradient4149);fill-opacity:1"
         id="path841" />
      <path
         d="m 124.76542,511.82404 q 0,3.89062 1.26562,5.88281 1.28906,1.99219 4.17188,1.99219 2.85937,0 4.10156,-1.96875 1.26562,-1.99219 1.26562,-5.90625 0,-3.89063 -1.26562,-5.83594 -1.26563,-1.94531 -4.14844,-1.94531 -2.85937,0 -4.125,1.94531 -1.26562,1.92187 -1.26562,5.83594 z m 18.11718,0 q 0,6.39843 -3.375,10.00781 -3.375,3.60937 -9.39843,3.60937 -3.77344,0 -6.65625,-1.64062 -2.88282,-1.66406 -4.42969,-4.75781 -1.54688,-3.09375 -1.54688,-7.21875 0,-6.42188 3.35157,-9.98438 3.35156,-3.5625 9.42187,-3.5625 3.77344,0 6.65625,1.64063 2.88281,1.64062 4.42969,4.71093 1.54687,3.07032 1.54687,7.19532 z"
         style="font-size:48px;font-family:sans-serif;letter-spacing:1px;fill:url(#linearGradient4149);fill-opacity:1"
         id="path843" />
    </g>
  </g>
</svg>
